<svg xmlns="http://www.w3.org/2000/svg" viewBox="0 0 194.5 130.9"><title>Asset 7</title><path d="M160.17,62.49a4.63,4.63,0,0,0-4.91,5,4.63,4.63,0,0,0,4.9,5,5.52,5.52,0,0,0,4.23-2.09,1.07,1.07,0,0,0,.15-.59V65.25a1.19,1.19,0,0,0-.08-.44C163.75,63,161.79,62.5,160.17,62.49Z" style="fill:#121417"/><path d="M189,76.83h-.87a1.18,1.18,0,0,1-1.17-1.18l0-9.75c0-2.51-1.4-3.37-3.57-3.37-3.22,0-4.06,1.52-4.43,3.05l0,10.05a1.18,1.18,0,0,1-1.18,1.17H175a1.18,1.18,0,0,1-1.17-1.18l0-15.72A1.18,1.18,0,0,1,175,58.74H179V60c1.25-1.38,3.62-1.56,6.8-1.56h.39L174.28.94A1.18,1.18,0,0,0,172.92,0L1,30.7A1.18,1.18,0,0,0,0,32.09L20.22,130a1.18,1.18,0,0,0,1.36.92L149,108.14a1.17,1.17,0,0,0,.44-2.13l0,0a1.18,1.18,0,0,1-.32-1.64L150,103a1.16,1.16,0,0,1,1.59-.35,11.82,11.82,0,0,0,5.8,1.81c2.21,0,3.26-.82,3.26-1.94,0-3-11.54-.58-11.53-7.69,0-3,2.86-5.68,8-5.67A13.2,13.2,0,0,1,164,90.95a1.17,1.17,0,0,1,.38,1.64l-.75,1.18a1.16,1.16,0,0,1-1.61.37,9.13,9.13,0,0,0-4.83-1.38c-1.85,0-3.06.78-3.06,1.79,0,2.69,11.5.47,11.49,7.76a5.05,5.05,0,0,1-.14,1.19,1.18,1.18,0,0,0,1.33,1.48l.83-.15a1.17,1.17,0,0,0,.83-1.7,9.53,9.53,0,0,1-1.07-4.52c0-5.24,4.16-9.46,10.07-9.45s9.72,4.05,9.71,10v1l-12.78,0a1.18,1.18,0,0,0-1,1.77,4.67,4.67,0,0,0,1.23,1.33,1.13,1.13,0,0,0,.87.18l18.09-3.23a1.18,1.18,0,0,0,.94-1.39l-4.34-21A1.18,1.18,0,0,0,189,76.83ZM122.43,63.89c0-3,2.86-5.68,8-5.67A13.2,13.2,0,0,1,137.24,60a1.17,1.17,0,0,1,.38,1.64l-.75,1.18a1.16,1.16,0,0,1-1.61.37,9.13,9.13,0,0,0-4.83-1.38c-1.85,0-3.06.78-3.06,1.79,0,2.69,11.5.47,11.49,7.76,0,3.29-3,5.79-8.41,5.78a14.46,14.46,0,0,1-7.75-2.12,1.17,1.17,0,0,1-.31-1.63l.92-1.38a1.16,1.16,0,0,1,1.59-.35,11.82,11.82,0,0,0,5.8,1.81c2.21,0,3.26-.82,3.26-1.94C134,68.59,122.42,71,122.43,63.89Zm-15.14-5.27,11.73,0a1.18,1.18,0,0,1,1.17,1.18V61A1.18,1.18,0,0,1,119,62.18h-7.26a1.18,1.18,0,0,0-1.18,1.17v1.32a1.18,1.18,0,0,0,1.17,1.18h7.06A1.18,1.18,0,0,1,120,67v1.19a1.18,1.18,0,0,1-1.18,1.17h-7.06a1.18,1.18,0,0,0-1.18,1.17v1.28A1.18,1.18,0,0,0,111.74,73H119a1.18,1.18,0,0,1,1.17,1.18v1.35A1.18,1.18,0,0,1,119,76.72l-11.73,0a1.18,1.18,0,0,1-1.17-1.18l0-15.73A1.18,1.18,0,0,1,107.29,58.62Zm-7.51,48.93H97a1.18,1.18,0,0,1-1.17-1.18l0-9.82c0-2.51-1.4-3.29-3.61-3.3A5.75,5.75,0,0,0,88.19,95a1.2,1.2,0,0,0-.36.84l0,10.53a1.18,1.18,0,0,1-1.18,1.17H83.88a1.18,1.18,0,0,1-1.17-1.18l0-22.6a1.18,1.18,0,0,1,1.18-1.17h2.76a1.18,1.18,0,0,1,1.17,1.18v4.52a1.18,1.18,0,0,0,1.62,1.09,12.15,12.15,0,0,1,4-.5c4.26,0,7.47,2.34,7.47,5.85l0,11.65A1.18,1.18,0,0,1,99.78,107.55ZM101,76.69h-2.8A1.18,1.18,0,0,1,97,75.51v-.37c-1.53,1.79-3.47,2-6,2-4.84-.11-8.27-3.45-8.26-9.48s4.06-9.37,8.62-9.49a8.64,8.64,0,0,1,4,.54A1.17,1.17,0,0,0,97,57.61v-4.7a1.18,1.18,0,0,1,1.18-1.17H101a1.18,1.18,0,0,1,1.17,1.18l0,22.6A1.18,1.18,0,0,1,101,76.69ZM114.23,108c-6.39,0-10.25-4.35-10.24-9.52s3.87-9.46,10.27-9.45,10.29,4.35,10.28,9.48S120.67,108,114.23,108Zm30.84-1.72a1.18,1.18,0,0,1-1.18,1.17H140V106.2c-1.25,1.38-3.62,1.56-6.8,1.56-4.26,0-6.31-2.72-6.3-6.23l0-11a1.18,1.18,0,0,1,1.18-1.17h2.76A1.18,1.18,0,0,1,132,90.57l0,9.75c0,2.51,1.4,3.37,3.57,3.37,3.22,0,4.06-1.52,4.43-3.05l0-10.05a1.18,1.18,0,0,1,1.18-1.17h2.76a1.18,1.18,0,0,1,1.17,1.18Zm.67-29.54H143a1.18,1.18,0,0,1-1.17-1.18l0-15.72A1.18,1.18,0,0,1,143,58.69h2.76a1.18,1.18,0,0,1,1.17,1.18l0,15.72A1.18,1.18,0,0,1,145.74,76.76Zm-1.37-20a3,3,0,0,1-3.05-2.85,3.06,3.06,0,1,1,3.05,2.85Zm25.3,18.82c0,6.88-5.72,8.56-10.51,8.55a12.61,12.61,0,0,1-7.41-2,1.18,1.18,0,0,1-.32-1.63l.94-1.4a1.19,1.19,0,0,1,1.7-.27,8.57,8.57,0,0,0,5.11,1.43c2.45,0,5.35-1,5.35-4.55V74.45c-1.53,1.79-3.62,2.22-6,2.21-4.86,0-8.56-3.19-8.55-9.21s3.67-9.2,8.58-9.19c2.33,0,4.42,0,6,1.85V58.72h4a1.18,1.18,0,0,1,1.17,1.18Z" style="fill:#121417"/><path d="M114.26,93.29c-3.18,0-4.95,2.42-5,5.23s1.76,5.28,4.94,5.28,5-2.42,5-5.27A4.91,4.91,0,0,0,114.26,93.29Z" style="fill:#121417"/><path d="M92.62,62.39a5.26,5.26,0,0,0,0,10.51c1.64,0,3.64-.59,4.32-2a1.13,1.13,0,0,0,.1-.5V64.86a1.13,1.13,0,0,0-.1-.49C96.26,63,94.25,62.39,92.62,62.39Z" style="fill:#121417"/><path d="M177.43,92.94a4.54,4.54,0,0,0-4.21,2.27,1.17,1.17,0,0,0,1,1.73h6.4a1.17,1.17,0,0,0,1.06-1.69A4.51,4.51,0,0,0,177.43,92.94Z" style="fill:#121417"/></svg>