<svg xmlns="http://www.w3.org/2000/svg" viewBox="0 0 159.85 107.63"><title>Asset 8</title><path d="M131.52,51.39a3.8,3.8,0,0,0-4,4.07,3.8,3.8,0,0,0,4,4.09,4.35,4.35,0,0,0,3.6-1.94V53.47C134.58,51.87,132.9,51.4,131.52,51.39Z" style="fill:#edebe8"/><path d="M155.93,63.15h-2.46v-9c0-2.05-1.15-2.76-2.93-2.76-2.64,0-3.33,1.24-3.63,2.5v9.21h-4.19l0-14.81h4.19v1c1-1.13,3-1.28,5.57-1.28h.32L142.9,0,0,25.5l17,82.14,108.5-19.36a9.41,9.41,0,0,1-3.51-1.8l1.82-2.73a9.5,9.5,0,0,0,5.5,2c1.81,0,2.67-.67,2.67-1.59,0-2.45-9.46-.47-9.45-6.3,0-2.48,2.35-4.66,6.53-4.65a10.66,10.66,0,0,1,6.43,2l-1.69,2.67A7,7,0,0,0,129,76.21c-1.52,0-2.51.64-2.51,1.47,0,2.21,9.43.38,9.42,6.36a4,4,0,0,1-.88,2.52l4-.71A7.53,7.53,0,0,1,137.42,81c0-4.29,3.41-7.75,8.25-7.75s8,3.32,8,8.17v.86l-11.83,0A3.79,3.79,0,0,0,143.66,85l16.19-2.89ZM100.57,52.54c0-2.48,2.35-4.66,6.53-4.65a10.66,10.66,0,0,1,6.43,2l-1.69,2.67a7,7,0,0,0-4.71-1.72c-1.52,0-2.51.64-2.51,1.47,0,2.21,9.43.38,9.42,6.36,0,2.7-2.48,4.75-6.9,4.74A11.22,11.22,0,0,1,100,61.13l1.82-2.73a9.5,9.5,0,0,0,5.5,2c1.81,0,2.67-.67,2.67-1.59C110,56.39,100.56,58.37,100.57,52.54ZM87.19,48.22l11.55,0v2.9H90.85v3h7.72v2.9H90.84v3h7.88v3L87.17,63ZM83,88.34H78.78v-9c0-2.05-1.15-2.7-3-2.7a4.75,4.75,0,0,0-3.63,1.74l0,10H68l0-20.46h4.19V74.3c.9-1,2.4-1.28,4.65-1.28,3.49,0,6.13,1.92,6.12,4.8ZM84,63H79.73V61.76c-1.26,1.47-2.85,1.67-4.91,1.63-4-.09-6.78-2.83-6.77-7.77s3.33-7.68,7.07-7.78c1.88,0,3.39,0,4.64,1.51V42.57H84Zm9.9,25.69c-5.24,0-8.4-3.57-8.39-7.8s3.18-7.75,8.42-7.75,8.43,3.57,8.43,7.77S99.12,88.74,93.85,88.73Zm25.29-.45h-4.19v-1c-1,1.13-3,1.28-5.57,1.28-3.49,0-5.17-2.23-5.17-5.11l0-10h4.19v9c0,2.05,1.15,2.76,2.93,2.76,2.64,0,3.33-1.24,3.63-2.5V73.46h4.19Zm1.51-25.19h-4.19l0-14.81h4.19Zm-2.08-16.41a2.44,2.44,0,0,1-2.5-2.33,2.51,2.51,0,1,1,2.5,2.33Zm20.75,15.43c0,5.64-4.69,7-8.61,7a10.1,10.1,0,0,1-6.85-2.22l1.88-2.82a6.58,6.58,0,0,0,5,1.85c2,0,4.39-.82,4.39-3.73v-1c-1.25,1.47-3,1.82-4.91,1.82-4,0-7-2.62-7-7.56s3-7.54,7-7.53c1.91,0,3.63,0,4.91,1.52V48.3h4.22Z" style="fill:#edebe8"/><path d="M93.87,76.64a4.32,4.32,0,1,0,4.08,4.3A4,4,0,0,0,93.87,76.64Z" style="fill:#edebe8"/><path d="M76.12,51.31a4.31,4.31,0,0,0,0,8.62c1.42,0,3.17-.54,3.63-1.81v-5C79.29,51.83,77.54,51.31,76.12,51.31Z" style="fill:#edebe8"/><path d="M145.67,76.36a3.72,3.72,0,0,0-3.93,3.28h7.85A3.58,3.58,0,0,0,145.67,76.36Z" style="fill:#edebe8"/></svg>